<svg xmlns="http://www.w3.org/2000/svg" width="560" height="606" viewBox="0 0 560 606" role="img" aria-label="GitHub statistics for Mr-Don-Leo">
  <style>
    text {
      font-family: 'JetBrains Mono', 'Fira Code', 'SF Mono', Menlo, Consolas, 'DejaVu Sans Mono', monospace;
      font-size: 14px;
    }
    .cursor { animation: blink 1.2s step-end infinite; }
    @keyframes blink { 50% { opacity: 0; } }
  </style>
  <rect x="1.5" y="1.5" width="557" height="603" rx="12" fill="#0b0e14" stroke="#00e5a0" stroke-opacity="0.55" stroke-width="1.5"/>
  <circle cx="28" cy="30" r="5" fill="#ff5f56"/>
  <circle cx="46" cy="30" r="5" fill="#ffbd2e"/>
  <circle cx="64" cy="30" r="5" fill="#27c93f"/>
  <text x="82" y="35" fill="#00e5a0" font-weight="bold">MR-DON-LEO // SYSTEM MONITOR</text>
  <line x1="16" y1="48" x2="544" y2="48" stroke="#1c2333" stroke-width="1"/>
    <text x="28" y="76" fill="#ff2e88" font-weight="bold" xml:space="preserve">github.activity</text>
  <text x="28" y="100" fill="#3d4a63" xml:space="preserve">├─</text>
  <text x="53.2" y="100" fill="#8b9bb4" xml:space="preserve">repositories</text>
  <text x="170.8" y="100" fill="#e6edf3" font-weight="bold" xml:space="preserve">     20</text>
  <text x="28" y="124" fill="#3d4a63" xml:space="preserve">├─</text>
  <text x="53.2" y="124" fill="#8b9bb4" xml:space="preserve">stars</text>
  <text x="170.8" y="124" fill="#e6edf3" font-weight="bold" xml:space="preserve">      8</text>
  <text x="28" y="148" fill="#3d4a63" xml:space="preserve">├─</text>
  <text x="53.2" y="148" fill="#8b9bb4" xml:space="preserve">commits</text>
  <text x="170.8" y="148" fill="#e6edf3" font-weight="bold" xml:space="preserve">    221</text>
  <text x="28" y="172" fill="#3d4a63" xml:space="preserve">├─</text>
  <text x="53.2" y="172" fill="#8b9bb4" xml:space="preserve">pull_requests</text>
  <text x="170.8" y="172" fill="#e6edf3" font-weight="bold" xml:space="preserve">     10</text>
  <text x="28" y="196" fill="#3d4a63" xml:space="preserve">├─</text>
  <text x="53.2" y="196" fill="#8b9bb4" xml:space="preserve">issues</text>
  <text x="170.8" y="196" fill="#e6edf3" font-weight="bold" xml:space="preserve">      2</text>
  <text x="28" y="220" fill="#3d4a63" xml:space="preserve">└─</text>
  <text x="53.2" y="220" fill="#8b9bb4" xml:space="preserve">followers</text>
  <text x="170.8" y="220" fill="#e6edf3" font-weight="bold" xml:space="preserve">     25</text>
  <text x="28" y="268" fill="#ff2e88" font-weight="bold" xml:space="preserve">languages</text>
  <text x="28" y="292" fill="#8b9bb4" xml:space="preserve">TypeScript   </text>
  <text x="137.2" y="292" fill="#00b4ff" xml:space="preserve">█████████████</text>
  <text x="246.4" y="292" fill="#1c2333" xml:space="preserve">░░░░░</text>
  <text x="305.2" y="292" fill="#e6edf3" xml:space="preserve">73.1%</text>
  <text x="28" y="316" fill="#8b9bb4" xml:space="preserve">MDX          </text>
  <text x="137.2" y="316" fill="#00b4ff" xml:space="preserve">██</text>
  <text x="154" y="316" fill="#1c2333" xml:space="preserve">░░░░░░░░░░░░░░░░</text>
  <text x="305.2" y="316" fill="#e6edf3" xml:space="preserve">13.5%</text>
  <text x="28" y="340" fill="#8b9bb4" xml:space="preserve">C            </text>
  <text x="137.2" y="340" fill="#00b4ff" xml:space="preserve">█</text>
  <text x="145.6" y="340" fill="#1c2333" xml:space="preserve">░░░░░░░░░░░░░░░░░</text>
  <text x="305.2" y="340" fill="#e6edf3" xml:space="preserve"> 7.2%</text>
  <text x="28" y="364" fill="#8b9bb4" xml:space="preserve">JavaScript   </text>
  <text x="137.2" y="364" fill="#00b4ff" xml:space="preserve">█</text>
  <text x="145.6" y="364" fill="#1c2333" xml:space="preserve">░░░░░░░░░░░░░░░░░</text>
  <text x="305.2" y="364" fill="#e6edf3" xml:space="preserve"> 3.5%</text>
  <text x="28" y="388" fill="#8b9bb4" xml:space="preserve">Rust         </text>
  <text x="137.2" y="388" fill="#00b4ff" xml:space="preserve">█</text>
  <text x="145.6" y="388" fill="#1c2333" xml:space="preserve">░░░░░░░░░░░░░░░░░</text>
  <text x="305.2" y="388" fill="#e6edf3" xml:space="preserve"> 2.7%</text>
  <text x="28" y="436" fill="#ff2e88" font-weight="bold" xml:space="preserve">recent.pushes</text>
  <text x="28" y="460" fill="#3d4a63" xml:space="preserve">→</text>
  <text x="44.8" y="460" fill="#e6edf3" xml:space="preserve">PassForge</text>
  <text x="280" y="460" fill="#4a5772" xml:space="preserve">2026-09-01</text>
  <text x="28" y="484" fill="#3d4a63" xml:space="preserve">→</text>
  <text x="44.8" y="484" fill="#e6edf3" xml:space="preserve">workspacectl</text>
  <text x="280" y="484" fill="#4a5772" xml:space="preserve">2026-09-01</text>
  <text x="28" y="508" fill="#3d4a63" xml:space="preserve">→</text>
  <text x="44.8" y="508" fill="#e6edf3" xml:space="preserve">ssh-manager</text>
  <text x="280" y="508" fill="#4a5772" xml:space="preserve">2026-09-01</text>
  <text x="28" y="556" fill="#00e5a0" font-weight="bold" xml:space="preserve">mr-don-leo@github:~$</text>
  <rect class="cursor" x="204.4" y="544" width="8" height="15" fill="#00e5a0"/>
  <text x="532" y="580" fill="#4a5772" text-anchor="end" font-size="11">last sync: 2026-09-01 15:36 UTC</text>
</svg>
